ffmpeg started on 2026-01-19 at 12:23:05
Report written to "D:\Convert\FFMetrics\reports\psnr_report-6.txt"
Log level: 32
Command line:
ffmpeg -hide_banner -nostdin -r 24000/1001 -i "F:\\Convert\\files\\[DC] Make Heroine ga Oosugiru - 07_Telegram_HEVC(178).mkv" -r 24000/1001 -i "F:\\Convert\\files\\[DC] Make Heroine ga Oosugiru - 07_Telegram.mp4" -lavfi "[0:v]settb=AVTB,setpts=PTS-STARTPTS,format=pix_fmts=yuv420p10le,fps=24000/1001,scale=1920:1080:flags=lanczos:param0=3:out_range=limited:out_color_matrix=bt709:out_chroma_loc=left,setsar=1/1,setdar=(1920/1080)*(1/1),colorspace=format=yuv420p10:range=tv:primaries=bt709:trc=bt709:space=bt709:fast=0[main];[1:v]settb=AVTB,setpts=PTS-STARTPTS,format=pix_fmts=yuv420p,fps=24000/1001,scale=1920:1080:flags=lanczos:param0=3:out_range=limited:out_color_matrix=bt709:out_chroma_loc=left,setsar=1.000,setdar=1.778,colorspace=format=yuv420p:range=tv:primaries=bt709:trc=bt709:space=bt709:fast=0[ref];[main][ref]psnr=eof_action=endall:stats_file='D\\:/Convert/FFMetrics/logs/psnr_logfile-6.txt'" -f null -
Input #0, matroska,webm, from 'F:\Convert\files\[DC] Make Heroine ga Oosugiru - 07_Telegram_HEVC(178).mkv':
  Metadata:
    COMPATIBLE_BRANDS: isomiso2avc1mp41
    MAJOR_BRAND     : isom
    MINOR_VERSION   : 512
    ENCODER         : Lavf61.7.100
  Duration: 00:24:06.79, start: -0.021000, bitrate: 951 kb/s
  Stream #0:0: Video: hevc (Main 10), yuv420p10le(tv, bt709, progressive), 1920x1080 [SAR 1:1 DAR 16:9], 23.98 fps, 23.98 tbr, 1k tbn (default)
      Metadata:
        HANDLER_NAME    : VideoHandler
        VENDOR_ID       : [0][0][0][0]
        ENCODER         : Lavc61.19.100 libx265
        BPS             : 754733
        DURATION        : 00:24:06.569708333
        NUMBER_OF_FRAMES: 34683
        NUMBER_OF_BYTES : 136471713
        _STATISTICS_WRITING_APP: mkvpropedit v94.0 ('Initiate') 64-bit
        _STATISTICS_WRITING_DATE_UTC: 2026-01-19 08:21:41
        _STATISTICS_TAGS: BPS DURATION NUMBER_OF_FRAMES NUMBER_OF_BYTES
  Stream #0:1: Audio: aac (LC), 48000 Hz, stereo, fltp (default)
      Metadata:
        HANDLER_NAME    : SoundHandler
        VENDOR_ID       : [0][0][0][0]
        ENCODER         : Lavc61.19.100 aac
        BPS             : 193194
        DURATION        : 00:24:06.784000000
        NUMBER_OF_FRAMES: 67819
        NUMBER_OF_BYTES : 34938755
        _STATISTICS_WRITING_APP: mkvpropedit v94.0 ('Initiate') 64-bit
        _STATISTICS_WRITING_DATE_UTC: 2026-01-19 08:21:41
        _STATISTICS_TAGS: BPS DURATION NUMBER_OF_FRAMES NUMBER_OF_BYTES
Input #1, mov,mp4,m4a,3gp,3g2,mj2, from 'F:\Convert\files\[DC] Make Heroine ga Oosugiru - 07_Telegram.mp4':
  Metadata:
    major_brand     : isom
    minor_version   : 512
    compatible_brands: isomiso2avc1mp41
    encoder         : Lavf60.16.100
  Duration: 00:24:06.74, start: 0.000000, bitrate: 3764 kb/s
  Stream #1:0[0x1](und): Video: h264 (High) (avc1 / 0x31637661), yuv420p(tv, bt709, progressive), 1920x1080 [SAR 1:1 DAR 16:9], 3616 kb/s, 23.98 fps, 23.98 tbr, 24k tbn (default)
      Metadata:
        handler_name    : VideoHandler
        vendor_id       : [0][0][0][0]
        encoder         : Lavc60.31.102 h264_qsv
  Stream #1:1[0x2](und): Audio: aac (HE-AACv2) (mp4a / 0x6134706D), 48000 Hz, stereo, fltp, 144 kb/s (default)
      Metadata:
        handler_name    : SoundHandler
        vendor_id       : [0][0][0][0]
Stream mapping:
  Stream #0:0 (hevc) -> settb:default
  Stream #1:0 (h264) -> settb:default
  psnr:default -> Stream #0:0 (wrapped_avframe)
  Stream #0:1 -> #0:1 (aac (native) -> pcm_s16le (native))
Output #0, null, to 'pipe:':
  Metadata:
    COMPATIBLE_BRANDS: isomiso2avc1mp41
    MAJOR_BRAND     : isom
    MINOR_VERSION   : 512
    encoder         : Lavf61.7.100
  Stream #0:0: Video: wrapped_avframe, yuv420p10le(tv, bt709, progressive), 1920x1080 [SAR 1:1 DAR 16:9], q=2-31, 200 kb/s, 23.98 fps, 23.98 tbn
      Metadata:
        encoder         : Lavc61.19.100 wrapped_avframe
  Stream #0:1: Audio: pcm_s16le, 48000 Hz, stereo, s16, 1536 kb/s (default)
      Metadata:
        HANDLER_NAME    : SoundHandler
        VENDOR_ID       : [0][0][0][0]
        _STATISTICS_TAGS: BPS DURATION NUMBER_OF_FRAMES NUMBER_OF_BYTES
        BPS             : 193194
        DURATION        : 00:24:06.784000000
        NUMBER_OF_FRAMES: 67819
        NUMBER_OF_BYTES : 34938755
        _STATISTICS_WRITING_APP: mkvpropedit v94.0 ('Initiate') 64-bit
        _STATISTICS_WRITING_DATE_UTC: 2026-01-19 08:21:41
        encoder         : Lavc61.19.100 pcm_s16le
frame=  126 fps=0.0 q=-0.0 size=N/A time=00:00:05.25 bitrate=N/A speed=10.2x    frame=  327 fps=319 q=-0.0 size=N/A time=00:00:13.63 bitrate=N/A speed=13.3x    frame=  520 fps=338 q=-0.0 size=N/A time=00:00:21.68 bitrate=N/A speed=14.1x    frame=  714 fps=348 q=-0.0 size=N/A time=00:00:29.77 bitrate=N/A speed=14.5x    frame=  896 fps=348 q=-0.0 size=N/A time=00:00:37.37 bitrate=N/A speed=14.5x    frame= 1041 fps=337 q=-0.0 size=N/A time=00:00:43.41 bitrate=N/A speed=14.1x    frame= 1212 fps=337 q=-0.0 size=N/A time=00:00:50.55 bitrate=N/A speed=  14x    frame= 1373 fps=334 q=-0.0 size=N/A time=00:00:57.26 bitrate=N/A speed=13.9x    frame= 1532 fps=330 q=-0.0 size=N/A time=00:01:03.89 bitrate=N/A speed=13.8x    frame= 1674 fps=325 q=-0.0 size=N/A time=00:01:09.81 bitrate=N/A speed=13.6x    frame= 1843 fps=325 q=-0.0 size=N/A time=00:01:16.86 bitrate=N/A speed=13.6x    frame= 2014 fps=325 q=-0.0 size=N/A time=00:01:24.00 bitrate=N/A speed=13.6x    frame= 2127 fps=317 q=-0.0 size=N/A time=00:01:28.71 bitrate=N/A speed=13.2x    frame= 2282 fps=316 q=-0.0 size=N/A time=00:01:35.17 bitrate=N/A speed=13.2x    frame= 2427 fps=314 q=-0.0 size=N/A time=00:01:41.22 bitrate=N/A speed=13.1x    frame= 2565 fps=310 q=-0.0 size=N/A time=00:01:46.98 bitrate=N/A speed=12.9x    frame= 2743 fps=312 q=-0.0 size=N/A time=00:01:54.40 bitrate=N/A speed=  13x    frame= 2920 fps=314 q=-0.0 size=N/A time=00:02:01.78 bitrate=N/A speed=13.1x    frame= 3113 fps=318 q=-0.0 size=N/A time=00:02:09.83 bitrate=N/A speed=13.2x    frame= 3319 fps=321 q=-0.0 size=N/A time=00:02:18.42 bitrate=N/A speed=13.4x    frame= 3506 fps=323 q=-0.0 size=N/A time=00:02:26.22 bitrate=N/A speed=13.5x    frame= 3706 fps=326 q=-0.0 size=N/A time=00:02:34.57 bitrate=N/A speed=13.6x    frame= 3898 fps=329 q=-0.0 size=N/A time=00:02:42.57 bitrate=N/A speed=13.7x    frame= 4096 fps=331 q=-0.0 size=N/A time=00:02:50.83 bitrate=N/A speed=13.8x    frame= 4290 fps=332 q=-0.0 size=N/A time=00:02:58.92 bitrate=N/A speed=13.9x    frame= 4486 fps=334 q=-0.0 size=N/A time=00:03:07.10 bitrate=N/A speed=13.9x    frame= 4682 fps=336 q=-0.0 size=N/A time=00:03:15.27 bitrate=N/A speed=  14x    frame= 4885 fps=338 q=-0.0 size=N/A time=00:03:23.74 bitrate=N/A speed=14.1x    frame= 5078 fps=339 q=-0.0 size=N/A time=00:03:31.79 bitrate=N/A speed=14.2x    frame= 5268 fps=340 q=-0.0 size=N/A time=00:03:39.71 bitrate=N/A speed=14.2x    frame= 5472 fps=342 q=-0.0 size=N/A time=00:03:48.22 bitrate=N/A speed=14.3x    frame= 5664 fps=343 q=-0.0 size=N/A time=00:03:56.23 bitrate=N/A speed=14.3x    frame= 5863 fps=344 q=-0.0 size=N/A time=00:04:04.53 bitrate=N/A speed=14.4x    frame= 6057 fps=345 q=-0.0 size=N/A time=00:04:12.62 bitrate=N/A speed=14.4x    frame= 6255 fps=346 q=-0.0 size=N/A time=00:04:20.88 bitrate=N/A speed=14.4x    frame= 6453 fps=347 q=-0.0 size=N/A time=00:04:29.14 bitrate=N/A speed=14.5x    frame= 6644 fps=348 q=-0.0 size=N/A time=00:04:37.11 bitrate=N/A speed=14.5x    frame= 6841 fps=349 q=-0.0 size=N/A time=00:04:45.32 bitrate=N/A speed=14.6x    frame= 7038 fps=350 q=-0.0 size=N/A time=00:04:53.54 bitrate=N/A speed=14.6x    frame= 7233 fps=351 q=-0.0 size=N/A time=00:05:01.67 bitrate=N/A speed=14.6x    frame= 7427 fps=351 q=-0.0 size=N/A time=00:05:09.76 bitrate=N/A speed=14.6x    frame= 7620 fps=352 q=-0.0 size=N/A time=00:05:17.81 bitrate=N/A speed=14.7x    frame= 7801 fps=352 q=-0.0 size=N/A time=00:05:25.36 bitrate=N/A speed=14.7x    frame= 7995 fps=352 q=-0.0 size=N/A time=00:05:33.45 bitrate=N/A speed=14.7x    frame= 8194 fps=353 q=-0.0 size=N/A time=00:05:41.75 bitrate=N/A speed=14.7x    frame= 8382 fps=353 q=-0.0 size=N/A time=00:05:49.59 bitrate=N/A speed=14.7x    frame= 8577 fps=354 q=-0.0 size=N/A time=00:05:57.73 bitrate=N/A speed=14.8x    frame= 8768 fps=354 q=-0.0 size=N/A time=00:06:05.69 bitrate=N/A speed=14.8x    frame= 8959 fps=355 q=-0.0 size=N/A time=00:06:13.66 bitrate=N/A speed=14.8x    frame= 9160 fps=355 q=-0.0 size=N/A time=00:06:22.04 bitrate=N/A speed=14.8x    frame= 9360 fps=356 q=-0.0 size=N/A time=00:06:30.39 bitrate=N/A speed=14.8x    frame= 9560 fps=356 q=-0.0 size=N/A time=00:06:38.73 bitrate=N/A speed=14.9x    frame= 9762 fps=357 q=-0.0 size=N/A time=00:06:47.15 bitrate=N/A speed=14.9x    frame= 9957 fps=357 q=-0.0 size=N/A time=00:06:55.28 bitrate=N/A speed=14.9x    frame=10146 fps=357 q=-0.0 size=N/A time=00:07:03.17 bitrate=N/A speed=14.9x    frame=10348 fps=358 q=-0.0 size=N/A time=00:07:11.59 bitrate=N/A speed=14.9x    frame=10534 fps=358 q=-0.0 size=N/A time=00:07:19.35 bitrate=N/A speed=14.9x    frame=10734 fps=359 q=-0.0 size=N/A time=00:07:27.69 bitrate=N/A speed=  15x    frame=10924 fps=359 q=-0.0 size=N/A time=00:07:35.62 bitrate=N/A speed=  15x    frame=11118 fps=359 q=-0.0 size=N/A time=00:07:43.71 bitrate=N/A speed=  15x    frame=11300 fps=359 q=-0.0 size=N/A time=00:07:51.30 bitrate=N/A speed=  15x    frame=11499 fps=359 q=-0.0 size=N/A time=00:07:59.60 bitrate=N/A speed=  15x    frame=11695 fps=360 q=-0.0 size=N/A time=00:08:07.77 bitrate=N/A speed=  15x    frame=11895 fps=360 q=-0.0 size=N/A time=00:08:16.12 bitrate=N/A speed=  15x    frame=12084 fps=360 q=-0.0 size=N/A time=00:08:24.00 bitrate=N/A speed=  15x    frame=12294 fps=361 q=-0.0 size=N/A time=00:08:32.76 bitrate=N/A speed=15.1x    frame=12487 fps=361 q=-0.0 size=N/A time=00:08:40.81 bitrate=N/A speed=15.1x    frame=12689 fps=362 q=-0.0 size=N/A time=00:08:49.23 bitrate=N/A speed=15.1x    frame=12880 fps=362 q=-0.0 size=N/A time=00:08:57.20 bitrate=N/A speed=15.1x    frame=13076 fps=362 q=-0.0 size=N/A time=00:09:05.37 bitrate=N/A speed=15.1x    frame=13266 fps=362 q=-0.0 size=N/A time=00:09:13.30 bitrate=N/A speed=15.1x    frame=13459 fps=362 q=-0.0 size=N/A time=00:09:21.35 bitrate=N/A speed=15.1x    frame=13654 fps=363 q=-0.0 size=N/A time=00:09:29.48 bitrate=N/A speed=15.1x    frame=13852 fps=363 q=-0.0 size=N/A time=00:09:37.74 bitrate=N/A speed=15.1x    frame=14045 fps=363 q=-0.0 size=N/A time=00:09:45.79 bitrate=N/A speed=15.1x    frame=14222 fps=363 q=-0.0 size=N/A time=00:09:53.17 bitrate=N/A speed=15.1x    frame=14417 fps=363 q=-0.0 size=N/A time=00:10:01.30 bitrate=N/A speed=15.1x    frame=14613 fps=363 q=-0.0 size=N/A time=00:10:09.48 bitrate=N/A speed=15.1x    frame=14802 fps=363 q=-0.0 size=N/A time=00:10:17.36 bitrate=N/A speed=15.1x    frame=14996 fps=363 q=-0.0 size=N/A time=00:10:25.45 bitrate=N/A speed=15.2x    frame=15166 fps=363 q=-0.0 size=N/A time=00:10:32.54 bitrate=N/A speed=15.1x    frame=15348 fps=363 q=-0.0 size=N/A time=00:10:40.13 bitrate=N/A speed=15.1x    frame=15546 fps=363 q=-0.0 size=N/A time=00:10:48.39 bitrate=N/A speed=15.1x    frame=15745 fps=363 q=-0.0 size=N/A time=00:10:56.69 bitrate=N/A speed=15.2x    frame=15934 fps=363 q=-0.0 size=N/A time=00:11:04.58 bitrate=N/A speed=15.2x    frame=16131 fps=364 q=-0.0 size=N/A time=00:11:12.79 bitrate=N/A speed=15.2x    frame=16329 fps=364 q=-0.0 size=N/A time=00:11:21.05 bitrate=N/A speed=15.2x    frame=16516 fps=364 q=-0.0 size=N/A time=00:11:28.85 bitrate=N/A speed=15.2x    frame=16715 fps=364 q=-0.0 size=N/A time=00:11:37.15 bitrate=N/A speed=15.2x    frame=16916 fps=364 q=-0.0 size=N/A time=00:11:45.53 bitrate=N/A speed=15.2x    frame=17110 fps=364 q=-0.0 size=N/A time=00:11:53.62 bitrate=N/A speed=15.2x    frame=17309 fps=365 q=-0.0 size=N/A time=00:12:01.92 bitrate=N/A speed=15.2x    frame=17498 fps=365 q=-0.0 size=N/A time=00:12:09.81 bitrate=N/A speed=15.2x    frame=17690 fps=365 q=-0.0 size=N/A time=00:12:17.82 bitrate=N/A speed=15.2x    frame=17884 fps=365 q=-0.0 size=N/A time=00:12:25.91 bitrate=N/A speed=15.2x    frame=18080 fps=365 q=-0.0 size=N/A time=00:12:34.08 bitrate=N/A speed=15.2x    frame=18265 fps=365 q=-0.0 size=N/A time=00:12:41.80 bitrate=N/A speed=15.2x    frame=18456 fps=365 q=-0.0 size=N/A time=00:12:49.76 bitrate=N/A speed=15.2x    frame=18652 fps=365 q=-0.0 size=N/A time=00:12:57.94 bitrate=N/A speed=15.2x    frame=18846 fps=365 q=-0.0 size=N/A time=00:13:06.03 bitrate=N/A speed=15.2x    frame=19056 fps=366 q=-0.0 size=N/A time=00:13:14.79 bitrate=N/A speed=15.3x    frame=19256 fps=366 q=-0.0 size=N/A time=00:13:23.13 bitrate=N/A speed=15.3x    frame=19445 fps=366 q=-0.0 size=N/A time=00:13:31.01 bitrate=N/A speed=15.3x    frame=19649 fps=366 q=-0.0 size=N/A time=00:13:39.52 bitrate=N/A speed=15.3x    frame=19849 fps=366 q=-0.0 size=N/A time=00:13:47.86 bitrate=N/A speed=15.3x    frame=20052 fps=367 q=-0.0 size=N/A time=00:13:56.33 bitrate=N/A speed=15.3x    frame=20253 fps=367 q=-0.0 size=N/A time=00:14:04.71 bitrate=N/A speed=15.3x    frame=20442 fps=367 q=-0.0 size=N/A time=00:14:12.60 bitrate=N/A speed=15.3x    frame=20627 fps=367 q=-0.0 size=N/A time=00:14:20.31 bitrate=N/A speed=15.3x    frame=20824 fps=367 q=-0.0 size=N/A time=00:14:28.53 bitrate=N/A speed=15.3x    frame=21025 fps=367 q=-0.0 size=N/A time=00:14:36.91 bitrate=N/A speed=15.3x    frame=21223 fps=367 q=-0.0 size=N/A time=00:14:45.17 bitrate=N/A speed=15.3x    frame=21429 fps=367 q=-0.0 size=N/A time=00:14:53.76 bitrate=N/A speed=15.3x    frame=21622 fps=368 q=-0.0 size=N/A time=00:15:01.81 bitrate=N/A speed=15.3x    frame=21819 fps=368 q=-0.0 size=N/A time=00:15:10.03 bitrate=N/A speed=15.3x    frame=22014 fps=368 q=-0.0 size=N/A time=00:15:18.16 bitrate=N/A speed=15.3x    frame=22213 fps=368 q=-0.0 size=N/A time=00:15:26.46 bitrate=N/A speed=15.3x    frame=22412 fps=368 q=-0.0 size=N/A time=00:15:34.76 bitrate=N/A speed=15.4x    frame=22608 fps=368 q=-0.0 size=N/A time=00:15:42.94 bitrate=N/A speed=15.4x    frame=22799 fps=368 q=-0.0 size=N/A time=00:15:50.90 bitrate=N/A speed=15.4x    frame=22999 fps=368 q=-0.0 size=N/A time=00:15:59.24 bitrate=N/A speed=15.4x    frame=23198 fps=368 q=-0.0 size=N/A time=00:16:07.54 bitrate=N/A speed=15.4x    frame=23395 fps=369 q=-0.0 size=N/A time=00:16:15.76 bitrate=N/A speed=15.4x    frame=23588 fps=369 q=-0.0 size=N/A time=00:16:23.81 bitrate=N/A speed=15.4x    frame=23790 fps=369 q=-0.0 size=N/A time=00:16:32.24 bitrate=N/A speed=15.4x    frame=23988 fps=369 q=-0.0 size=N/A time=00:16:40.49 bitrate=N/A speed=15.4x    frame=24177 fps=369 q=-0.0 size=N/A time=00:16:48.38 bitrate=N/A speed=15.4x    frame=24380 fps=369 q=-0.0 size=N/A time=00:16:56.84 bitrate=N/A speed=15.4x    frame=24579 fps=369 q=-0.0 size=N/A time=00:17:05.14 bitrate=N/A speed=15.4x    frame=24772 fps=369 q=-0.0 size=N/A time=00:17:13.19 bitrate=N/A speed=15.4x    frame=24973 fps=369 q=-0.0 size=N/A time=00:17:21.58 bitrate=N/A speed=15.4x    frame=25170 fps=369 q=-0.0 size=N/A time=00:17:29.79 bitrate=N/A speed=15.4x    frame=25365 fps=370 q=-0.0 size=N/A time=00:17:37.93 bitrate=N/A speed=15.4x    frame=25563 fps=370 q=-0.0 size=N/A time=00:17:46.19 bitrate=N/A speed=15.4x    frame=25758 fps=370 q=-0.0 size=N/A time=00:17:54.32 bitrate=N/A speed=15.4x    frame=25965 fps=370 q=-0.0 size=N/A time=00:18:02.95 bitrate=N/A speed=15.4x    frame=26161 fps=370 q=-0.0 size=N/A time=00:18:11.13 bitrate=N/A speed=15.4x    frame=26356 fps=370 q=-0.0 size=N/A time=00:18:19.26 bitrate=N/A speed=15.4x    frame=26556 fps=370 q=-0.0 size=N/A time=00:18:27.60 bitrate=N/A speed=15.4x    frame=26755 fps=370 q=-0.0 size=N/A time=00:18:35.90 bitrate=N/A speed=15.4x    frame=26941 fps=370 q=-0.0 size=N/A time=00:18:43.66 bitrate=N/A speed=15.4x    frame=27122 fps=370 q=-0.0 size=N/A time=00:18:51.21 bitrate=N/A speed=15.4x    frame=27314 fps=370 q=-0.0 size=N/A time=00:18:59.22 bitrate=N/A speed=15.4x    frame=27498 fps=370 q=-0.0 size=N/A time=00:19:06.89 bitrate=N/A speed=15.4x    frame=27685 fps=370 q=-0.0 size=N/A time=00:19:14.69 bitrate=N/A speed=15.4x    frame=27874 fps=370 q=-0.0 size=N/A time=00:19:22.57 bitrate=N/A speed=15.4x    frame=28069 fps=370 q=-0.0 size=N/A time=00:19:30.71 bitrate=N/A speed=15.4x    frame=28266 fps=370 q=-0.0 size=N/A time=00:19:38.92 bitrate=N/A speed=15.4x    frame=28458 fps=370 q=-0.0 size=N/A time=00:19:46.93 bitrate=N/A speed=15.4x    frame=28652 fps=370 q=-0.0 size=N/A time=00:19:55.02 bitrate=N/A speed=15.4x    frame=28838 fps=370 q=-0.0 size=N/A time=00:20:02.78 bitrate=N/A speed=15.4x    frame=29008 fps=370 q=-0.0 size=N/A time=00:20:09.87 bitrate=N/A speed=15.4x    frame=29185 fps=370 q=-0.0 size=N/A time=00:20:17.25 bitrate=N/A speed=15.4x    frame=29373 fps=370 q=-0.0 size=N/A time=00:20:25.09 bitrate=N/A speed=15.4x    frame=29549 fps=369 q=-0.0 size=N/A time=00:20:32.43 bitrate=N/A speed=15.4x    frame=29726 fps=369 q=-0.0 size=N/A time=00:20:39.82 bitrate=N/A speed=15.4x    frame=29907 fps=369 q=-0.0 size=N/A time=00:20:47.37 bitrate=N/A speed=15.4x    frame=30076 fps=369 q=-0.0 size=N/A time=00:20:54.41 bitrate=N/A speed=15.4x    frame=30268 fps=369 q=-0.0 size=N/A time=00:21:02.42 bitrate=N/A speed=15.4x    frame=30458 fps=369 q=-0.0 size=N/A time=00:21:10.35 bitrate=N/A speed=15.4x    frame=30646 fps=369 q=-0.0 size=N/A time=00:21:18.19 bitrate=N/A speed=15.4x    frame=30843 fps=369 q=-0.0 size=N/A time=00:21:26.41 bitrate=N/A speed=15.4x    frame=31025 fps=369 q=-0.0 size=N/A time=00:21:34.00 bitrate=N/A speed=15.4x    frame=31210 fps=369 q=-0.0 size=N/A time=00:21:41.71 bitrate=N/A speed=15.4x    frame=31403 fps=369 q=-0.0 size=N/A time=00:21:49.76 bitrate=N/A speed=15.4x    frame=31590 fps=369 q=-0.0 size=N/A time=00:21:57.56 bitrate=N/A speed=15.4x    frame=31781 fps=369 q=-0.0 size=N/A time=00:22:05.53 bitrate=N/A speed=15.4x    frame=31958 fps=369 q=-0.0 size=N/A time=00:22:12.91 bitrate=N/A speed=15.4x    frame=32157 fps=369 q=-0.0 size=N/A time=00:22:21.21 bitrate=N/A speed=15.4x    frame=32345 fps=369 q=-0.0 size=N/A time=00:22:29.05 bitrate=N/A speed=15.4x    frame=32540 fps=369 q=-0.0 size=N/A time=00:22:37.18 bitrate=N/A speed=15.4x    frame=32706 fps=368 q=-0.0 size=N/A time=00:22:44.11 bitrate=N/A speed=15.4x    frame=32863 fps=368 q=-0.0 size=N/A time=00:22:50.66 bitrate=N/A speed=15.4x    frame=33050 fps=368 q=-0.0 size=N/A time=00:22:58.46 bitrate=N/A speed=15.4x    frame=33224 fps=368 q=-0.0 size=N/A time=00:23:05.71 bitrate=N/A speed=15.3x    frame=33401 fps=368 q=-0.0 size=N/A time=00:23:13.10 bitrate=N/A speed=15.3x    frame=33558 fps=367 q=-0.0 size=N/A time=00:23:19.64 bitrate=N/A speed=15.3x    frame=33712 fps=367 q=-0.0 size=N/A time=00:23:26.07 bitrate=N/A speed=15.3x    frame=33838 fps=366 q=-0.0 size=N/A time=00:23:31.32 bitrate=N/A speed=15.3x    frame=33978 fps=366 q=-0.0 size=N/A time=00:23:37.16 bitrate=N/A speed=15.3x    frame=34156 fps=366 q=-0.0 size=N/A time=00:23:44.58 bitrate=N/A speed=15.3x    frame=34308 fps=365 q=-0.0 size=N/A time=00:23:50.92 bitrate=N/A speed=15.2x    frame=34442 fps=365 q=-0.0 size=N/A time=00:23:56.51 bitrate=N/A speed=15.2x    frame=34620 fps=365 q=-0.0 size=N/A time=00:24:03.94 bitrate=N/A speed=15.2x    [Parsed_psnr_16 @ 0000020c4d400d80] PSNR y:48.828176 u:50.309625 v:50.358237 average:49.274475 min:38.004179 max:inf
[out#0/null @ 0000020c3ff18a00] video:14903KiB audio:271276KiB subtitle:0KiB other streams:0KiB global headers:0KiB muxing overhead: unknown
frame=34683 fps=365 q=-0.0 Lsize=N/A time=00:24:06.57 bitrate=N/A speed=15.2x    
